{
  "accessors": [
    {
      "bufferView": 2,
      "componentType": 5126,
      "count": 5179,
      "max": [
        0.95009428262710571,
        0.95000004768371582,
        0.1246933713555336
      ],
      "min": [
        -0.95000004768371582,
        -0.95003533363342285,
        -0.12546603381633759
      ],
      "type": "VEC3"
    },
    {
      "bufferView": 2,
      "byteOffset": 62148,
      "componentType": 5126,
      "count": 5179,
      "max": [
        0.83382797241210938,
        0.82261067628860474,
        0.99999988079071045
      ],
      "min": [
        -0.96734189987182617,
        -0.73506414890289307,
        0.25134244561195374
      ],
      "type": "VEC3"
    },
    {
      "bufferView": 3,
      "componentType": 5126,
      "count": 5179,
      "max": [
        0.094932630658149719,
        -0.5006263256072998,
        0.86549288034439087,
        1
      ],
      "min": [
        -0.071629650890827179,
        -1,
        -0.73648089170455933,
        1
      ],
      "type": "VEC4"
    },
    {
      "bufferView": 1,
      "componentType": 5126,
      "count": 5179,
      "max": [
        0.99844658374786377,
        0.99929344654083252
      ],
      "min": [
        -0.0015223026275634766,
        -0.0007374882698059082
      ],
      "type": "VEC2"
    },
    {
      "bufferView": 0,
      "componentType": 5125,
      "count": 30156,
      "max": [
        5178
      ],
      "min": [
        0
      ],
      "type": "SCALAR"
    },
    {
      "bufferView": 2,
      "byteOffset": 124296,
      "componentType": 5126,
      "count": 620,
      "max": [
        0.95009428262710571,
        0.95000004768371582,
        -0.084951303899288177
      ],
      "min": [
        -0.95000004768371582,
        -0.95003533363342285,
        -0.18967932462692261
      ],
      "type": "VEC3"
    },
    {
      "bufferView": 2,
      "byteOffset": 131736,
      "componentType": 5126,
      "count": 620,
      "max": [
        1,
        1,
        6.0080839148213272e-07
      ],
      "min": [
        -1,
        -1,
        -1
      ],
      "type": "VEC3"
    },
    {
      "bufferView": 3,
      "byteOffset": 82864,
      "componentType": 5126,
      "count": 620,
      "max": [
        0.99999868869781494,
        0,
        0,
        1
      ],
      "min": [
        -1,
        -1,
        -0.99998849630355835,
        -1
      ],
      "type": "VEC4"
    },
    {
      "bufferView": 1,
      "byteOffset": 41432,
      "componentType": 5126,
      "count": 620,
      "max": [
        0.99844658374786377,
        0.99929344654083252
      ],
      "min": [
        -0.0015223026275634766,
        -0.0007374882698059082
      ],
      "type": "VEC2"
    },
    {
      "bufferView": 0,
      "byteOffset": 120624,
      "componentType": 5125,
      "count": 1830,
      "max": [
        619
      ],
      "min": [
        0
      ],
      "type": "SCALAR"
    }
  ],
  "asset": {
    "extras": {
      "author": "SebastianSosnowski (https://sketchfab.com/SebastianSosnowski)",
      "license": "CC-BY-4.0 (http://creativecommons.org/licenses/by/4.0/)",
      "source": "https://sketchfab.com/models/53679864b41a43b0ae0459ce99d6adf0",
      "title": "Mars - Olympus Mons"
    },
    "generator": "Sketchfab-3.49.1",
    "version": "2.0"
  },
  "bufferViews": [
    {
      "buffer": 0,
      "byteLength": 127944,
      "byteOffset": 0,
      "name": "floatBufferViews",
      "target": 34963
    },
    {
      "buffer": 0,
      "byteLength": 46392,
      "byteOffset": 127944,
      "byteStride": 8,
      "name": "floatBufferViews",
      "target": 34962
    },
    {
      "buffer": 0,
      "byteLength": 139176,
      "byteOffset": 174336,
      "byteStride": 12,
      "name": "floatBufferViews",
      "target": 34962
    },
    {
      "buffer": 0,
      "byteLength": 92784,
      "byteOffset": 313512,
      "byteStride": 16,
      "name": "floatBufferViews",
      "target": 34962
    }
  ],
  "buffers": [
    {
      "byteLength": 406296,
      "uri": "scene.bin"
    }
  ],
  "images": [
    {
      "uri": "textures/material_metallicRoughness.png"
    },
    {
      "uri": "textures/material_normal.png"
    },
    {
      "uri": "textures/material_baseColor.jpeg"
    }
  ],
  "materials": [
    {
      "doubleSided": false,
      "name": "material",
      "normalTexture": {
        "index": 1,
        "scale": 1,
        "texCoord": 0
      },
      "occlusionTexture": {
        "index": 0,
        "strength": 1,
        "texCoord": 0
      },
      "pbrMetallicRoughness": {
        "baseColorFactor": [
          1,
          1,
          1,
          1
        ],
        "baseColorTexture": {
          "index": 2,
          "texCoord": 0
        },
        "metallicFactor": 0,
        "metallicRoughnessTexture": {
          "index": 0,
          "texCoord": 0
        },
        "roughnessFactor": 1
      }
    },
    {
      "doubleSided": true,
      "emissiveFactor": [
        0,
        0,
        0
      ],
      "name": "material_2",
      "pbrMetallicRoughness": {
        "baseColorFactor": [
          0,
          0,
          0,
          1
        ],
        "metallicFactor": 1,
        "roughnessFactor": 1
      }
    }
  ],
  "meshes": [
    {
      "name": "OlympusMons_LP_1_0",
      "primitives": [
        {
          "attributes": {
            "NORMAL": 1,
            "POSITION": 0,
            "TANGENT": 2,
            "TEXCOORD_0": 3
          },
          "indices": 4,
          "material": 0,
          "mode": 4
        }
      ]
    },
    {
      "name": "OlympusMons_LP_2_0",
      "primitives": [
        {
          "attributes": {
            "NORMAL": 6,
            "POSITION": 5,
            "TANGENT": 7,
            "TEXCOORD_0": 8
          },
          "indices": 9,
          "material": 1,
          "mode": 4
        }
      ]
    }
  ],
  "nodes": [
    {
      "children": [
        1
      ],
      "name": "RootNode (gltf orientation matrix)",
      "rotation": [
        -0.70710678118654746,
        -0,
        -0,
        0.70710678118654757
      ]
    },
    {
      "children": [
        2
      ],
      "name": "RootNode (model correction matrix)"
    },
    {
      "children": [
        3
      ],
      "matrix": [
        1,
        0,
        0,
        0,
        0,
        0,
        1,
        0,
        0,
        -1,
        0,
        0,
        0,
        0,
        0,
        1
      ],
      "name": "0334e5300e4f49ffabf7acd91e406d5e.fbx"
    },
    {
      "children": [
        4
      ],
      "name": "RootNode"
    },
    {
      "children": [
        5,
        6
      ],
      "matrix": [
        1,
        0,
        0,
        0,
        0,
        2.2204460492503131e-16,
        -1,
        0,
        0,
        1,
        2.2204460492503131e-16,
        0,
        0,
        0,
        0,
        1
      ],
      "name": "OlympusMons_LP"
    },
    {
      "mesh": 0,
      "name": "OlympusMons_LP_1_0"
    },
    {
      "mesh": 1,
      "name": "OlympusMons_LP_2_0"
    }
  ],
  "samplers": [
    {
      "magFilter": 9729,
      "minFilter": 9987,
      "wrapS": 10497,
      "wrapT": 10497
    }
  ],
  "scene": 0,
  "scenes": [
    {
      "name": "OSG_Scene",
      "nodes": [
        0
      ]
    }
  ],
  "textures": [
    {
      "sampler": 0,
      "source": 0
    },
    {
      "sampler": 0,
      "source": 1
    },
    {
      "sampler": 0,
      "source": 2
    }
  ]
}

